<svg version="1.1" viewBox="0.0 0.0 720.0 720.0" fill="none" stroke="none" stroke-linecap="square" stroke-miterlimit="10" xmlns:xlink="http://www.w3.org/1999/xlink" xmlns="http://www.w3.org/2000/svg"><clipPath id="p.0"><path d="m0 0l720.0 0l0 720.0l-720.0 0l0 -720.0z" clip-rule="nonzero"/></clipPath><g clip-path="url(#p.0)"><path fill="#000000" fill-opacity="0.0" d="m0 0l720.0 0l0 720.0l-720.0 0z" fill-rule="evenodd"/><path fill="#ffffff" d="m0 360.0l0 0c0 -198.82251 161.17749 -360.0 360.0 -360.0l0 0c95.477936 0 187.04535 37.928463 254.55847 105.44156c67.51306 67.51309 105.44153 159.0805 105.44153 254.55844l0 0c0 198.82251 -161.17749 360.0 -360.0 360.0l0 0c-198.82251 0 -360.0 -161.17749 -360.0 -360.0z" fill-rule="evenodd"/><path stroke="#000000" stroke-width="8.0" stroke-linejoin="round" stroke-linecap="butt" d="m0 360.0l0 0c0 -198.82251 161.17749 -360.0 360.0 -360.0l0 0c95.477936 0 187.04535 37.928463 254.55847 105.44156c67.51306 67.51309 105.44153 159.0805 105.44153 254.55844l0 0c0 198.82251 -161.17749 360.0 -360.0 360.0l0 0c-198.82251 0 -360.0 -161.17749 -360.0 -360.0z" fill-rule="evenodd"/><path fill="#c9daf8" d="m72.01167 258.811l0 0c0 -76.311264 58.611664 -138.1738 130.91281 -138.1738l0 0c34.720245 0 68.01842 14.557564 92.56935 40.470177c24.550903 25.912613 38.343475 61.057663 38.343475 97.70361l0 0c0 76.31131 -58.611664 138.17383 -130.91283 138.17383l0 0c-72.30115 0 -130.91281 -61.86252 -130.91281 -138.17383z" fill-rule="evenodd"/><path stroke="#000000" stroke-width="24.0" stroke-linejoin="round" stroke-linecap="butt" d="m72.01167 258.811l0 0c0 -76.311264 58.611664 -138.1738 130.91281 -138.1738l0 0c34.720245 0 68.01842 14.557564 92.56935 40.470177c24.550903 25.912613 38.343475 61.057663 38.343475 97.70361l0 0c0 76.31131 -58.611664 138.17383 -130.91283 138.17383l0 0c-72.30115 0 -130.91281 -61.86252 -130.91281 -138.17383z" fill-rule="evenodd"/><path fill="#000000" fill-opacity="0.0" d="m341.039 120.637215l0 478.72687" fill-rule="evenodd"/><path stroke="#000000" stroke-width="24.0" stroke-linejoin="round" stroke-linecap="butt" d="m341.039 120.637215l0 478.72687" fill-rule="evenodd"/><path fill="#d9ead3" d="m386.16376 461.18192l0 0c0 -76.31128 58.611664 -138.1738 130.91284 -138.1738l0 0c34.720215 0 68.01843 14.557556 92.569336 40.470184c24.550903 25.912598 38.343445 61.057648 38.343445 97.70361l0 0c0 76.31131 -58.611633 138.1738 -130.91278 138.1738l0 0c-72.30118 0 -130.91284 -61.862488 -130.91284 -138.1738z" fill-rule="evenodd"/><path stroke="#000000" stroke-width="24.0" stroke-linejoin="round" stroke-linecap="butt" d="m386.16376 461.18192l0 0c0 -76.31128 58.611664 -138.1738 130.91284 -138.1738l0 0c34.720215 0 68.01843 14.557556 92.569336 40.470184c24.550903 25.912598 38.343445 61.057648 38.343445 97.70361l0 0c0 76.31131 -58.611633 138.1738 -130.91278 138.1738l0 0c-72.30118 0 -130.91284 -61.862488 -130.91284 -138.1738z" fill-rule="evenodd"/><path fill="#000000" fill-opacity="0.0" d="m386.16376 120.637215l0 478.72687" fill-rule="evenodd"/><path stroke="#000000" stroke-width="24.0" stroke-linejoin="round" stroke-linecap="butt" d="m386.16376 120.637215l0 478.72687" fill-rule="evenodd"/></g></svg>