<svg width="2057" height="2058" xmlns="http://www.w3.org/2000/svg" xmlns:xlink="http://www.w3.org/1999/xlink" xml:space="preserve" overflow="hidden"><g transform="translate(-1172 -209)"><path d="M1176.5 1238C1176.5 672.184 1634.96 213.5 2200.5 213.5 2766.04 213.5 3224.5 672.184 3224.5 1238 3224.5 1803.82 2766.04 2262.5 2200.5 2262.5 1634.96 2262.5 1176.5 1803.82 1176.5 1238Z" stroke="#000000" stroke-width="9.16667" stroke-miterlimit="8" fill="#FFFFFF" fill-rule="evenodd"/><path d="M1484 660.502C1484 596.712 1535.71 545 1599.5 545L2061.5 545C2125.29 545 2177 596.712 2177 660.502L2177 1122.5C2177 1186.29 2125.29 1238 2061.5 1238L1599.5 1238C1535.71 1238 1484 1186.29 1484 1122.5Z" fill="#156082" fill-rule="evenodd"/><path d="M2131 1202.5C2131 1196.15 2136.15 1191 2142.5 1191L2165.5 1191C2171.85 1191 2177 1196.15 2177 1202.5L2177 1919.5C2177 1925.85 2171.85 1931 2165.5 1931L2142.5 1931C2136.15 1931 2131 1925.85 2131 1919.5Z" fill="#156082" fill-rule="evenodd"/><rect x="2061" y="1121" width="116" height="117" fill="#156082"/><path d="M1530 660.714C1530 622.212 1561.21 591 1599.71 591L2061.29 591C2099.79 591 2131 622.212 2131 660.714L2131 1121.29C2131 1159.79 2099.79 1191 2061.29 1191L1599.71 1191C1561.21 1191 1530 1159.79 1530 1121.29Z" fill="#FFFFFF" fill-rule="evenodd"/><rect x="2073" y="1238" width="57.9998" height="58.0001" fill="#156082"/><path d="M2015 1296C2015 1263.97 2040.97 1238 2073 1238L2073 1238C2105.03 1238 2131 1263.97 2131 1296L2131 1296C2131 1328.03 2105.03 1354 2073 1354L2073 1354C2040.97 1354 2015 1328.03 2015 1296Z" fill="#FFFFFF" fill-rule="evenodd"/><rect x="2269" y="1179" width="57.9998" height="58.0001" fill="#E97132"/><path d="M2269 1178C2269 1145.97 2294.97 1120 2327 1120L2327 1120C2359.03 1120 2385 1145.97 2385 1178L2385 1178C2385 1210.03 2359.03 1236 2327 1236L2327 1236C2294.97 1236 2269 1210.03 2269 1178Z" fill="#FFFFFF" fill-rule="evenodd"/><rect x="2223" y="1238" width="116" height="116" fill="#E97132"/><path d="M2223 567.999C2223 555.297 2233.3 545 2246 545L2246 545C2258.7 545 2269 555.297 2269 567.999L2269 1253C2269 1265.7 2258.7 1276 2246 1276L2246 1276C2233.3 1276 2223 1265.7 2223 1253Z" fill="#E97132" fill-rule="evenodd"/><path d="M2223 1353.5C2223 1289.71 2274.71 1238 2338.5 1238L2800.5 1238C2864.29 1238 2916 1289.71 2916 1353.5L2916 1815.5C2916 1879.29 2864.29 1931 2800.5 1931L2338.5 1931C2274.71 1931 2223 1879.29 2223 1815.5Z" fill="#E97132" fill-rule="evenodd"/><path d="M2269 1353.71C2269 1315.21 2300.21 1284 2338.71 1284L2800.29 1284C2838.79 1284 2870 1315.21 2870 1353.71L2870 1814.29C2870 1852.79 2838.79 1884 2800.29 1884L2338.71 1884C2300.21 1884 2269 1852.79 2269 1814.29Z" fill="#FFFFFF" fill-rule="evenodd"/></g></svg>