<svg width="2057" height="2058" xmlns="http://www.w3.org/2000/svg" xmlns:xlink="http://www.w3.org/1999/xlink" xml:space="preserve" overflow="hidden"><g transform="translate(-1172 -209)"><path d="M1176.5 1238C1176.5 672.184 1634.96 213.5 2200.5 213.5 2766.04 213.5 3224.5 672.184 3224.5 1238 3224.5 1803.82 2766.04 2262.5 2200.5 2262.5 1634.96 2262.5 1176.5 1803.82 1176.5 1238Z" stroke="#000000" stroke-width="9.16667" stroke-miterlimit="8" fill="#FFFFFF" fill-rule="evenodd"/><path d="M1833 423.5C1833 408.312 1845.31 396 1860.5 396L1860.5 396C1875.69 396 1888 408.312 1888 423.5L1888 1193.5C1888 1208.69 1875.69 1221 1860.5 1221L1860.5 1221C1845.31 1221 1833 1208.69 1833 1193.5Z" fill="#156082" fill-rule="evenodd"/><path d="M2603 423.5C2603 408.312 2615.31 396 2630.5 396L2630.5 396C2645.69 396 2658 408.312 2658 423.5L2658 1193.5C2658 1208.69 2645.69 1221 2630.5 1221L2630.5 1221C2615.31 1221 2603 1208.69 2603 1193.5Z" fill="#156082" fill-rule="evenodd"/><path d="M1833 423.5C1833 408.312 1845.31 396 1860.5 396L2630.5 396C2645.69 396 2658 408.312 2658 423.5L2658 423.5C2658 438.688 2645.69 451 2630.5 451L1860.5 451C1845.31 451 1833 438.688 1833 423.5Z" fill="#156082" fill-rule="evenodd"/><path d="M1833 1193.5C1833 1178.31 1845.31 1166 1860.5 1166L2630.5 1166C2645.69 1166 2658 1178.31 2658 1193.5L2658 1193.5C2658 1208.69 2645.69 1221 2630.5 1221L1860.5 1221C1845.31 1221 1833 1208.69 1833 1193.5Z" fill="#156082" fill-rule="evenodd"/><path d="M2603 1248.5C2603 1233.31 2615.31 1221 2630.5 1221L2630.5 1221C2645.69 1221 2658 1233.31 2658 1248.5L2658 2018.5C2658 2033.69 2645.69 2046 2630.5 2046L2630.5 2046C2615.31 2046 2603 2033.69 2603 2018.5Z" fill="#156082" fill-rule="evenodd"/><path d="M2603 1193.5C2603 1178.31 2615.31 1166 2630.5 1166L2630.5 1166C2645.69 1166 2658 1178.31 2658 1193.5L2658 1248.5C2658 1263.69 2645.69 1276 2630.5 1276L2630.5 1276C2615.31 1276 2603 1263.69 2603 1248.5Z" fill="#156082" fill-rule="evenodd"/><path d="M1742 1281.5C1742 1266.31 1754.31 1254 1769.5 1254L1769.5 1254C1784.69 1254 1797 1266.31 1797 1281.5L1797 2051.5C1797 2066.69 1784.69 2079 1769.5 2079L1769.5 2079C1754.31 2079 1742 2066.69 1742 2051.5Z" fill="#E97132" fill-rule="evenodd"/><path d="M2512 1281.5C2512 1266.31 2524.31 1254 2539.5 1254L2539.5 1254C2554.69 1254 2567 1266.31 2567 1281.5L2567 2051.5C2567 2066.69 2554.69 2079 2539.5 2079L2539.5 2079C2524.31 2079 2512 2066.69 2512 2051.5Z" fill="#E97132" fill-rule="evenodd"/><path d="M1742 1281.5C1742 1266.31 1754.31 1254 1769.5 1254L2539.5 1254C2554.69 1254 2567 1266.31 2567 1281.5L2567 1281.5C2567 1296.69 2554.69 1309 2539.5 1309L1769.5 1309C1754.31 1309 1742 1296.69 1742 1281.5Z" fill="#E97132" fill-rule="evenodd"/><path d="M1742 2051.5C1742 2036.31 1754.31 2024 1769.5 2024L2539.5 2024C2554.69 2024 2567 2036.31 2567 2051.5L2567 2051.5C2567 2066.69 2554.69 2079 2539.5 2079L1769.5 2079C1754.31 2079 1742 2066.69 1742 2051.5Z" fill="#E97132" fill-rule="evenodd"/><path d="M1742 456.5C1742 441.312 1754.31 429 1769.5 429L1769.5 429C1784.69 429 1797 441.312 1797 456.5L1797 1226.5C1797 1241.69 1784.69 1254 1769.5 1254L1769.5 1254C1754.31 1254 1742 1241.69 1742 1226.5Z" fill="#E97132" fill-rule="evenodd"/><path d="M1742 1226.5C1742 1211.31 1754.31 1199 1769.5 1199L1769.5 1199C1784.69 1199 1797 1211.31 1797 1226.5L1797 1281.5C1797 1296.69 1784.69 1309 1769.5 1309L1769.5 1309C1754.31 1309 1742 1296.69 1742 1281.5Z" fill="#E97132" fill-rule="evenodd"/></g></svg>