<svg width="4400" height="1727" xmlns="http://www.w3.org/2000/svg" xmlns:xlink="http://www.w3.org/1999/xlink" xml:space="preserve" overflow="hidden"><defs><clipPath id="clip0"><rect x="0" y="374" width="4400" height="1727"/></clipPath></defs><g clip-path="url(#clip0)" transform="matrix(1 0 0 1 0 -374)"><path d="M63.9999 402C63.9999 386.536 76.536 374 92 374L92 374C107.464 374 120 386.536 120 402L120 1175C120 1190.46 107.464 1203 92 1203L92 1203C76.536 1203 63.9999 1190.46 63.9999 1175Z" fill="#156082" fill-rule="evenodd"/><path d="M837 402C837 386.536 849.536 374 865 374L865 374C880.464 374 893 386.536 893 402L893 1175C893 1190.46 880.464 1203 865 1203L865 1203C849.536 1203 837 1190.46 837 1175Z" fill="#156082" fill-rule="evenodd"/><path d="M63.9999 402C63.9999 386.536 76.5358 374 91.9995 374L865 374C880.464 374 893 386.536 893 402L893 402C893 417.464 880.464 430 865 430L91.9995 430C76.5358 430 63.9999 417.464 63.9999 402Z" fill="#156082" fill-rule="evenodd"/><path d="M63.9999 1175C63.9999 1159.54 76.5358 1147 91.9995 1147L865 1147C880.464 1147 893 1159.54 893 1175L893 1175C893 1190.46 880.464 1203 865 1203L91.9995 1203C76.5358 1203 63.9999 1190.46 63.9999 1175Z" fill="#156082" fill-rule="evenodd"/><path d="M837 1231C837 1215.54 849.536 1203 865.001 1203L865.001 1203C880.465 1203 893.001 1215.54 893.001 1231L893 2003C893 2018.46 880.464 2031 865 2031L865.001 2031C849.536 2031 837 2018.46 837 2003Z" fill="#156082" fill-rule="evenodd"/><path d="M837 1175C837 1159.54 849.536 1147 865 1147L865 1147C880.464 1147 893 1159.54 893 1175L893 1230C893 1245.46 880.464 1258 865 1258L865 1258C849.536 1258 837 1245.46 837 1230Z" fill="#156082" fill-rule="evenodd"/><path d="M0 1236.52C-6.59652e-15 1221.32 12.3209 1209 27.5195 1209L27.5195 1209C42.7181 1209 55.039 1221.32 55.039 1236.52L55.0381 2010.48C55.0381 2025.68 42.7172 2038 27.5186 2038L27.5195 2038C12.3209 2038-3.29826e-15 2025.68-3.29826e-15 2010.48Z" fill="#E97132" fill-rule="evenodd"/><path d="M773 1236.52C773 1221.32 785.321 1209 800.52 1209L800.52 1209C815.718 1209 828.039 1221.32 828.039 1236.52L828.038 2010.48C828.038 2025.68 815.717 2038 800.519 2038L800.52 2038C785.321 2038 773 2025.68 773 2010.48Z" fill="#E97132" fill-rule="evenodd"/><path d="M0 1237C-3.29423e-15 1221.54 12.5361 1209 28.0002 1209L800.001 1209C815.465 1209 828.001 1221.54 828.001 1237L828 1237C828 1252.46 815.464 1265 800 1265L28.0002 1265C12.5361 1265-9.8827e-15 1252.46-6.58847e-15 1237Z" fill="#E97132" fill-rule="evenodd"/><path d="M0 2010C-3.29423e-15 1994.54 12.5361 1982 28.0002 1982L800.001 1982C815.465 1982 828.001 1994.54 828.001 2010L828 2010C828 2025.46 815.464 2038 800 2038L28.0002 2038C12.5361 2038-9.8827e-15 2025.46-6.58847e-15 2010Z" fill="#E97132" fill-rule="evenodd"/><path d="M0 408.5C-3.29424e-15 393.312 12.3124 381 27.5005 381L27.5005 381C42.6885 381 55.0009 393.312 55.0009 408.5L55 1181.5C55 1196.69 42.6876 1209 27.4995 1209L27.5005 1209C12.3124 1209-6.58848e-15 1196.69-6.58848e-15 1181.5Z" fill="#E97132" fill-rule="evenodd"/><path d="M0 1181.5C-3.53295e-15 1166.31 12.3122 1154 27.5 1154L27.5 1154C42.6878 1154 55 1166.31 55 1181.5L55 1237.5C55 1252.69 42.6878 1265 27.5 1265L27.5 1265C12.3122 1265-3.53295e-15 1252.69 0 1237.5Z" fill="#E97132" fill-rule="evenodd"/><path d="M1756 788.5C1756 559.578 1941.58 374 2170.5 374 2399.42 374 2585 559.578 2585 788.5L2530.3 788.5C2530.3 589.786 2369.21 428.697 2170.5 428.697 1971.79 428.697 1810.7 589.787 1810.7 788.5Z" fill="#156082" fill-rule="evenodd"/><path d="M1756 788.5C1756 773.312 1768.31 761 1783.5 761L2557.5 761C2572.69 761 2585 773.312 2585 788.5L2585 788.5C2585 803.689 2572.69 816.001 2557.5 816.001L1783.5 816C1768.31 816 1756 803.688 1756 788.5Z" fill="#156082" fill-rule="evenodd"/><path d="M2463.32 1081.32C2301.59 1243.04 2039.39 1243.04 1877.67 1081.32 1715.94 919.595 1715.94 657.391 1877.67 495.669L1916.31 534.31C1775.93 674.692 1775.93 902.296 1916.31 1042.68 2056.69 1183.06 2284.29 1183.06 2424.67 1042.68Z" fill="#156082" fill-rule="evenodd"/><path d="M2439.89 1026.66C2450.67 1015.88 2468.15 1015.88 2478.93 1026.66L2478.93 1026.66C2489.71 1037.44 2489.71 1054.92 2478.93 1065.7L2478.93 1065.7C2468.15 1076.48 2450.67 1076.48 2439.89 1065.7L2439.89 1065.7C2429.11 1054.92 2429.11 1037.44 2439.89 1026.66Z" fill="#156082" fill-rule="evenodd"/><path d="M2439.91 1026.64 2478.95 1065.68 2459.41 1085.22 2420.37 1046.18Z" fill="#156082" fill-rule="evenodd"/><path d="M1820 1231.5C1820 1216.31 1832.31 1204 1847.5 1204L1847.5 1204C1862.69 1204 1875 1216.31 1875 1231.5L1875 2004.5C1875 2019.69 1862.69 2032 1847.5 2032L1847.5 2032C1832.31 2032 1820 2019.69 1820 2004.5Z" fill="#E97132" fill-rule="evenodd"/><path d="M2593 1231.5C2593 1216.31 2605.31 1204 2620.5 1204L2620.5 1204C2635.69 1204 2648 1216.31 2648 1231.5L2648 2004.5C2648 2019.69 2635.69 2032 2620.5 2032L2620.5 2032C2605.31 2032 2593 2019.69 2593 2004.5Z" fill="#E97132" fill-rule="evenodd"/><path d="M1820 1231.5C1820 1216.31 1832.31 1204 1847.5 1204L2620.5 1204C2635.69 1204 2648 1216.31 2648 1231.5L2648 1231.5C2648 1246.69 2635.69 1259 2620.5 1259L1847.5 1259C1832.31 1259 1820 1246.69 1820 1231.5Z" fill="#E97132" fill-rule="evenodd"/><path d="M1820 2004.5C1820 1989.31 1832.31 1977 1847.5 1977L2620.5 1977C2635.69 1977 2648 1989.31 2648 2004.5L2648 2004.5C2648 2019.69 2635.69 2032 2620.5 2032L1847.5 2032C1832.31 2032 1820 2019.69 1820 2004.5Z" fill="#E97132" fill-rule="evenodd"/><path d="M2593 403.5C2593 388.312 2605.31 376 2620.5 376L2620.5 376C2635.69 376 2648 388.312 2648 403.5L2648 1176.5C2648 1191.69 2635.69 1204 2620.5 1204L2620.5 1204C2605.31 1204 2593 1191.69 2593 1176.5Z" fill="#E97132" fill-rule="evenodd"/><path d="M2593 1176.5C2593 1161.31 2605.31 1149 2620.5 1149L2620.5 1149C2635.69 1149 2648 1161.31 2648 1176.5L2648 1231.5C2648 1246.69 2635.69 1259 2620.5 1259L2620.5 1259C2605.31 1259 2593 1246.69 2593 1231.5Z" fill="#E97132" fill-rule="evenodd"/><path d="M2661 403.5C2661 388.312 2673.31 376 2688.5 376L2688.5 376C2703.69 376 2716 388.312 2716 403.5L2716 1176.5C2716 1191.69 2703.69 1204 2688.5 1204L2688.5 1204C2673.31 1204 2661 1191.69 2661 1176.5Z" fill="#156082" fill-rule="evenodd"/><path d="M3050 403.5C3050 388.312 3062.31 376 3077.5 376L3461.5 376C3476.69 376 3489 388.312 3489 403.5L3489 403.5C3489 418.688 3476.69 431 3461.5 431L3077.5 431C3062.31 431 3050 418.688 3050 403.5Z" fill="#156082" fill-rule="evenodd"/><path d="M2661 789.999C2661 561.354 2846.35 376 3075 376L3075 430.631C2876.53 430.631 2715.63 591.526 2715.63 789.999Z" fill="#156082" fill-rule="evenodd"/><path d="M2725 1233C2725 1217.54 2737.54 1205 2753 1205L2753 1205C2768.46 1205 2781 1217.54 2781 1233L2781 2005C2781 2020.46 2768.46 2033 2753 2033L2753 2033C2737.54 2033 2725 2020.46 2725 2005Z" fill="#E97132" fill-rule="evenodd"/><path d="M3498 1233C3498 1217.54 3510.54 1205 3526 1205L3526 1205C3541.46 1205 3554 1217.54 3554 1233L3554 2005C3554 2020.46 3541.46 2033 3526 2033L3526 2033C3510.54 2033 3498 2020.46 3498 2005Z" fill="#E97132" fill-rule="evenodd"/><path d="M2725 1232.5C2725 1217.31 2737.31 1205 2752.5 1205L3526.5 1205C3541.69 1205 3554 1217.31 3554 1232.5L3554 1232.5C3554 1247.69 3541.69 1260 3526.5 1260L2752.5 1260C2737.31 1260 2725 1247.69 2725 1232.5Z" fill="#E97132" fill-rule="evenodd"/><path d="M2725 2005.5C2725 1990.31 2737.31 1978 2752.5 1978L3526.5 1978C3541.69 1978 3554 1990.31 3554 2005.5L3554 2005.5C3554 2020.69 3541.69 2033 3526.5 2033L2752.5 2033C2737.31 2033 2725 2020.69 2725 2005.5Z" fill="#E97132" fill-rule="evenodd"/><path d="M3498 405C3498 389.536 3510.54 377 3526 377L3526 377C3541.46 377 3554 389.536 3554 405L3554 1177C3554 1192.46 3541.46 1205 3526 1205L3526 1205C3510.54 1205 3498 1192.46 3498 1177Z" fill="#E97132" fill-rule="evenodd"/><path d="M3498 1178C3498 1162.54 3510.54 1150 3526 1150L3526 1150C3541.46 1150 3554 1162.54 3554 1178L3554 1232C3554 1247.46 3541.46 1260 3526 1260L3526 1260C3510.54 1260 3498 1247.46 3498 1232Z" fill="#E97132" fill-rule="evenodd"/><g><g><g><path d="M3432.92 47.5851C3426.41 33.6346 3432.45 17.0521 3446.4 10.547L3446.4 10.547C3460.35 4.04178 3476.93 10.0773 3483.44 24.0276L3863.58 839.253C3870.08 853.203 3864.05 869.786 3850.1 876.291L3850.1 876.29C3836.15 882.795 3819.57 876.76 3813.07 862.81Z" fill="#E97132" fill-rule="evenodd" transform="matrix(1.00015 0 0 1 150.93 385.906)"/><path d="M4194.93 25.5678C4201.45 11.5958 4218.06 5.55087 4232.03 12.0662L4232.03 12.0662C4246 18.5815 4252.05 35.1897 4245.53 49.1617L3500.6 1646.69C3494.08 1660.65 3477.47 1666.7 3463.49 1660.19L3463.5 1660.19C3449.53 1653.67 3443.49 1637.06 3449.99 1623.09Z" fill="#E97132" fill-rule="evenodd" transform="matrix(1.00015 0 0 1 150.93 385.906)"/></g></g></g><g><g><g><path d="M3432.92 47.5851C3426.41 33.6346 3432.45 17.0521 3446.4 10.547L3446.4 10.547C3460.35 4.04177 3476.93 10.0773 3483.44 24.0276L3863.58 839.252C3870.08 853.203 3864.05 869.786 3850.1 876.29L3850.1 876.289C3836.15 882.795 3819.57 876.76 3813.07 862.809Z" fill="#156082" fill-rule="evenodd" transform="matrix(1.00015 0 0 1 132.93 366.906)"/><path d="M4194.93 25.5678C4201.45 11.5957 4218.06 5.55087 4232.03 12.0662L4232.03 12.0662C4246 18.5815 4252.05 35.1897 4245.53 49.1617L3500.59 1646.69C3494.08 1660.65 3477.47 1666.7 3463.49 1660.19L3463.5 1660.19C3449.53 1653.67 3443.49 1637.06 3449.99 1623.09Z" fill="#156082" fill-rule="evenodd" transform="matrix(1.00015 0 0 1 132.93 366.906)"/></g></g></g><path d="M920 420.492C920 405.309 932.309 393 947.493 393L947.493 393C962.677 393 974.985 405.309 974.985 420.492L974.985 2018.51C974.985 2033.69 962.677 2046 947.493 2046L947.493 2046C932.309 2046 920 2033.69 920 2018.51Z" fill="#E97132" fill-rule="evenodd"/><path d="M920 2018C920 2002.54 932.536 1990 948 1990L1719 1990C1734.46 1990 1747 2002.54 1747 2018L1747 2018C1747 2033.46 1734.46 2046 1719 2046L948 2046C932.536 2046 920 2033.46 920 2018Z" fill="#E97132" fill-rule="evenodd"/><path d="M1692 2017.5C1692 2002.31 1704.31 1990 1719.5 1990L1719.5 1990C1734.69 1990 1747 2002.31 1747 2017.5L1747 2073.5C1747 2088.69 1734.69 2101 1719.5 2101L1719.5 2101C1704.31 2101 1692 2088.69 1692 2073.5Z" fill="#E97132" fill-rule="evenodd"/><path d="M1692 420.492C1692 405.309 1704.31 393 1719.49 393L1719.49 393C1734.68 393 1746.99 405.309 1746.99 420.492L1746.99 2018.51C1746.99 2033.69 1734.68 2046 1719.49 2046L1719.49 2046C1704.31 2046 1692 2033.69 1692 2018.51Z" fill="#E97132" fill-rule="evenodd"/><path d="M902 401.492C902 386.309 914.309 374 929.493 374L929.493 374C944.677 374 956.986 386.309 956.986 401.492L956.986 1999.51C956.986 2014.69 944.677 2027 929.493 2027L929.493 2027C914.309 2027 902 2014.69 902 1999.51Z" fill="#156082" fill-rule="evenodd"/><path d="M902 1999.5C902 1984.31 914.312 1972 929.5 1972L1700.5 1972C1715.69 1972 1728 1984.31 1728 1999.5L1728 1999.5C1728 2014.69 1715.69 2027 1700.5 2027L929.5 2027C914.312 2027 902 2014.69 902 1999.5Z" fill="#156082" fill-rule="evenodd"/><path d="M1673 1999.5C1673 1984.31 1685.31 1972 1700.5 1972L1700.5 1972C1715.69 1972 1728 1984.31 1728 1999.5L1728 2054.5C1728 2069.69 1715.69 2082 1700.5 2082L1700.5 2082C1685.31 2082 1673 2069.69 1673 2054.5Z" fill="#156082" fill-rule="evenodd"/><path d="M1673 401.492C1673 386.309 1685.31 374 1700.49 374L1700.49 374C1715.68 374 1727.99 386.309 1727.99 401.492L1727.99 1999.51C1727.99 2014.69 1715.68 2027 1700.49 2027L1700.49 2027C1685.31 2027 1673 2014.69 1673 1999.51Z" fill="#156082" fill-rule="evenodd"/></g></svg>